<svg width="130" height="130" viewBox="0 0 130 130" fill="none" xmlns="http://www.w3.org/2000/svg">
<path fill-rule="evenodd" clip-rule="evenodd" d="M99.5685 5.73988C101.097 4.97544 102.817 5.16655 104.155 6.1221C105.493 7.07765 106.257 8.60653 106.257 10.3265V119.259C106.257 120.788 105.302 122.317 103.964 123.273C103.2 123.846 102.435 124.037 101.48 124.037C100.715 124.037 100.142 123.846 99.3774 123.464L29.431 91.1662H0V38.2287H30.0043L99.5685 5.73988ZM36.5021 83.904L96.7018 111.233V17.3976L36.5021 45.8731V83.904ZM26.7554 47.593H9.55551V81.6107H26.7554V47.593ZM19.4303 18.9308C25.3936 12.9675 32.2417 8.35051 39.9746 5.07978C47.9811 1.69326 56.3674 0 65.1334 0C73.8994 0 82.2857 1.69326 90.2922 5.07978C90.6864 5.24652 91.0784 5.41675 91.468 5.59049L88.209 7.11253C80.8503 4.15327 73.1585 2.67364 65.1335 2.67364C56.729 2.67364 48.6899 4.29651 41.0161 7.54224C33.6035 10.6775 27.0384 15.1039 21.3209 20.8214C17.156 24.9863 13.6762 29.6011 10.8815 34.6656H7.8466C10.8729 28.8719 14.7342 23.627 19.4304 18.9308H19.4303ZM110.837 18.9308C116.8 24.8942 121.417 31.7423 124.688 39.4751C128.074 47.4818 129.768 55.8681 129.768 64.634C129.768 73.4 128.074 81.7863 124.688 89.7928C121.417 97.5258 116.8 104.374 110.837 110.337C110.501 110.673 110.162 111.004 109.82 111.332V107.555C115.117 102.049 119.251 95.7814 122.225 88.7512C125.471 81.0775 127.094 73.0385 127.094 64.634C127.094 56.2295 125.471 48.1904 122.225 40.5166C119.251 33.4862 115.117 27.2183 109.82 21.7128V17.9357C110.162 18.2631 110.501 18.5949 110.837 18.9308V18.9308ZM90.2922 124.188C82.2857 127.575 73.8994 129.268 65.1334 129.268C56.3674 129.268 47.9811 127.575 39.9745 124.188C32.2417 120.917 25.3936 116.3 19.4303 110.337C14.7684 105.675 10.9292 100.473 7.91293 94.7291H10.9516C13.7343 99.744 17.1907 104.316 21.3209 108.447C27.0385 114.164 33.6035 118.59 41.0161 121.726C48.6898 124.971 56.729 126.594 65.1334 126.594C73.1263 126.594 80.7886 125.126 88.1205 122.191L89.2572 122.716L91.4032 123.706C91.0349 123.87 90.6646 124.031 90.2922 124.188V124.188Z" fill="#00A7FF"/>
</svg>
