<svg width="180" height="180" viewBox="0 0 768 672" fill="none" xmlns="http://www.w3.org/2000/svg">
<path fill-rule="evenodd" clip-rule="evenodd" d="M485.882 403.6C487.468 403.151 488.76 402.673 490.59 402.654C497.518 402.579 490.946 405.311 503.526 400.784C508.7 398.921 514.303 396.513 519.751 395.33C518.36 401.548 509.495 415.587 505.954 420.455C499.503 429.326 495.065 434.095 488.674 440.773C478.224 451.691 460.282 464.204 443.158 471.224C409.891 484.861 381.301 486.363 345.867 477.731C339.941 476.287 322.975 470.264 319.258 467.083C329.673 463.166 340.408 459.338 350.898 455.716L370.903 448.254C378.061 445.918 377.9 447.395 380.926 442.854C390.536 443.627 395.792 438.735 402.99 436.624L443.608 422.381C456.379 417.614 449.896 419.133 454.461 416.76C456.071 415.923 468.042 415.5 473.202 410.343C473.315 410.23 473.461 410.05 473.578 409.939L477.616 406.341C477.98 407.472 477.831 407.178 478.336 407.904C479.391 409.42 478.329 408.152 479.614 409.254C486.959 407.498 484.126 408.171 485.88 403.602L485.882 403.6ZM391.268 357.247C393.208 370.695 393.238 384.649 387.255 394.97C382.813 402.634 371.077 409.275 358.296 406.558C338.499 402.35 327.092 378.578 319.872 359.642C312.288 339.753 303.666 307.515 321.054 292.716C345.154 272.203 369.932 300.925 372.572 311.44C371.002 312.259 358.282 322.688 357.865 323.188C353.996 318.46 352.149 314.045 347.103 310.434C341.557 306.467 335.601 308.381 333.238 314.343C327.359 329.182 343.792 371.245 355.66 380.994C360.902 385.302 367.86 385.371 370.871 379.394C374.196 372.792 371.919 365.447 372.301 358.155L391.267 357.245L391.268 357.247ZM99.1151 347.43C95.1771 347.654 79.076 354.117 74.0524 355.906C65.4949 358.953 57.0277 362.336 48.717 364.94L92.1762 486.302C96.9647 499.164 101.582 514.873 106.93 527.215L315.824 452.548C331.946 445.495 349.502 440.75 366.253 434.262C383.033 427.762 400.094 422.427 416.342 416.2C449.602 403.455 483.401 392.431 517.21 379.976L693.421 316.485C698.341 314.697 700.916 313.5 706.121 311.952C709.026 311.088 716.338 308.475 718.497 307.165L704.286 266.55C699.521 253.684 693.964 239.532 689.741 226.212C684.484 209.629 674.489 183.639 667.993 165.765C665.748 159.588 662.377 151.285 660.811 145.426C654.225 146.401 501.595 202.189 487.695 207.202C468.375 214.17 449.161 220.631 430.031 227.836L394.308 240.684C390.894 241.973 389.929 243.572 388.062 243.921C379.49 245.52 306.119 271.629 287.289 279.384C282.508 281.353 277.744 282.627 272.774 284.443C268.089 286.156 263.539 288.302 258.347 289.701C249.816 291.998 238.421 296.826 229.622 300.003C219.977 303.486 210.364 307.29 200.574 310.323C200.906 313.747 200.795 316.534 199.209 319.332C198.17 317.461 198.924 314.301 199.089 311.413C193.026 312.708 134.181 334.175 123.601 338.042C118.139 340.038 102.297 344.667 99.1151 347.43V347.43ZM276.095 438.084L235.219 323.738C238.353 321.977 253.377 316.519 256.705 316.197L289.823 365.369C293.633 370.542 296.895 376.792 300.925 381.362C300.067 377.312 296.072 368.047 294.466 363.894C291.761 356.901 275.74 313.49 275.207 309.515L291.511 303.243C297.446 316.596 332.352 416.944 332.283 418.387C328.813 419.947 313.973 425.315 311.217 425.46L267.603 362.107L292.768 432.736L276.096 438.084H276.095ZM273.632 439.269L254.936 445.593C253.162 442.052 241.84 422.522 239.852 420.601L216.394 429.052L220.681 458.645L204.689 464.689C201.108 464.399 202.037 467.975 200.121 450.462L194.374 405.203C192.977 393.816 186.434 348.811 186.432 341.628C188.909 339.63 203.624 334.288 207.824 333.804C212.392 342.288 219.033 351.933 224.426 360.266C230.641 369.868 272.59 435.188 273.632 439.268V439.269ZM188.684 464.177C182.359 480.504 149.927 492.38 128.025 449.64C122.715 439.277 116.432 423.809 113.877 411.378C111.37 399.181 109.279 388.343 113.669 375.908C114.858 372.541 117.181 369.544 117.524 367.752C120.222 366.367 118.751 367.128 120.882 365.065C138.82 347.7 163.826 362.244 172.818 382.356C171.103 385.046 160.171 393.772 157.577 394.939C144.001 369.162 120.621 376.02 139.418 424.874C143.747 436.127 149.107 447.274 156.481 453.292C161.773 457.612 168.654 456.665 171.395 450.876C174.393 444.547 172.662 436.788 172.476 429.733L191.596 428.932C193.562 439.973 193.678 455.13 188.684 464.176V464.177ZM477.953 297.77C478.598 300.932 478.976 300.968 479.913 303.769C480.278 304.861 480.401 305.743 480.786 306.703C482.076 309.927 480.878 307.878 482.362 309.332C482.516 313.805 489.709 330.132 491.334 336.371C500.312 335.96 519.046 325.07 526.869 325.014L533.745 345.543C530.872 347.419 484.895 364.06 480.355 364.659L473.346 346.105L467.11 346.27C468.842 345.193 468.959 345.451 472.678 345.687C472.637 337.873 440.297 257.849 439.701 250.052C444.375 248.164 452.591 244.729 457.685 243.781C461.935 249.439 467.625 274.363 470.909 278.189L477.953 297.77V297.77ZM501.768 227.511C510.423 224.485 553.782 208.079 558.819 207.639C560.238 214.169 565.29 222.644 565.62 228.707L528.562 241.893C529.413 246.972 531.299 250.644 532.894 254.725C534.346 258.444 535.594 263.01 536.812 266.582C546.07 265.659 562.774 255.744 571.835 254.984L579.029 275.974L544.788 288.228L554.019 314.532L594.609 300.351C596.509 305.841 601.152 316.154 601.775 321.492L542.795 342.327L501.769 227.51L501.768 227.511ZM368.75 275.835C370.454 274.473 422.142 255.901 425.487 255.535C427.017 259.545 432.593 273.291 432.43 276.629L395.418 289.653C396.411 296.917 401.568 307.095 403.692 314.307C405.657 314.174 407.678 313.698 409.507 312.962C413.609 311.311 411.537 312.567 412.256 310.562C421.161 310.686 432.505 302.63 438.908 303.361L445.876 323.849L412.306 336.145C412.348 340.954 419.197 356.371 421.007 362.305L461.366 348.133C462.95 351.538 468.217 365.589 468.649 369.042C465.4 371.044 413.946 389.531 409.906 390.124C406.676 384.274 369.274 278.653 368.75 275.835V275.835ZM568.551 203.454C584.334 197.656 603.398 187.842 620.719 198.204C644.611 212.496 677.556 293.475 634.235 309.837C628.332 312.066 614.77 317.561 609.198 318.456C603.784 300.82 569.462 211.501 568.552 203.455L568.551 203.454ZM594.968 218.103L620.469 290.151C630.419 288.444 634.907 282.997 634.761 271.919C634.581 258.364 625.857 234.247 618.153 224.275C612.238 216.62 606.238 214.525 594.967 218.102L594.968 218.103ZM553.753 427.003C557.436 418.53 566.566 422.639 572.698 426.385C577.991 429.619 585.738 433.97 580.569 442.459L556.919 429.593C554.216 428.053 555.289 429.092 553.753 427.003ZM538.243 431.702C540.424 434.385 557.609 443.355 560.93 445.177C567.895 448.998 577.409 455.201 584.524 458.112C587.753 452.621 594.778 443.031 593.926 434.914C593.099 427.036 585.038 419.736 578.874 416.247C556.667 403.679 546.368 412.783 538.243 431.702ZM226.482 207.918C224.143 204.322 221.365 201.67 219.322 197.138C222.773 198.234 228.619 201.02 231.216 202.993C230.152 205.567 228.508 207.009 226.482 207.918ZM203.065 191.13C204.465 195.403 227.817 227.324 232.781 235.935C235.804 234.575 239.458 229.987 240.591 227.274L233.695 217.252C236.425 214.28 238.551 211.238 241.505 208.546L252.434 213.442C255.356 211.559 258.989 207.362 259.562 204.56C253.747 200.871 242.271 196.151 235.614 193.218C229.303 190.438 216.401 183.373 210.959 182.148L203.065 191.13V191.13ZM219.539 227.554C217.191 229.237 213.477 233.097 212.388 235.889C214.456 238.735 220.626 243.865 214.934 247.728C209.082 251.622 185.362 242.001 189.001 230.27C193.082 228.147 194.275 229.026 199.165 229.556L201.598 218.825C178.112 211.511 163.105 239.522 193.728 255.552C224.889 271.864 238.736 243.218 219.539 227.553V227.554ZM582.154 376.855C582.349 380.347 584.391 387.156 583.413 389.752C582.312 392.674 578.334 393.515 576.404 398.495L587.699 399.974L593.875 410.686C593.959 410.59 594.181 410.154 594.247 410.286L595.759 408.399C597.064 406.322 598.372 401.731 599.614 400.498C601.789 398.34 608.87 397.863 611.944 397.285C609.932 394.587 605.793 392.221 604.296 390.034C602.071 386.782 604.612 381.423 604.177 376.239C601.234 377.333 596.031 381.229 593.868 381.449C591.389 381.701 585.155 377.924 582.156 376.854L582.154 376.855ZM188.522 294.65C188.411 290.245 185.682 284.52 187.47 281.371C189.285 278.173 193.384 277.021 194.514 272.905L182.733 271.734L176.496 261.101C174.063 263.701 172.7 269.769 171.099 271.298C169.066 273.239 162.145 273.559 159.004 274.074C161.186 278.336 164.89 279.678 167.648 282.911L166.438 295.367C169.353 294.303 175.23 290.077 177.314 289.992C180.025 289.882 185.136 293.641 188.522 294.65ZM213.309 406.166L228.299 401.268C227.366 397.823 208.025 365.531 206.211 363.607L213.31 406.166H213.309ZM250.175 276.491C253.516 262.144 272.214 239.564 280.555 231.081C292.514 218.918 307.179 208.382 325.618 200.142C357.361 185.956 389.107 184.439 423.31 192.676C429.041 194.055 448.087 200.182 450.971 203.776C448.839 205.458 441.793 207.764 439.124 208.685L401.072 222.342C384.779 228.129 259.724 274.207 250.175 276.491V276.491ZM246.322 69.0528L241.255 79.7664L209.438 75.8554C205.546 83.1658 204.192 100.351 200.617 107.122L168.653 108.314L166.007 139.984L160.044 141.766C155.789 142.191 136.777 145.984 134.328 147.382L136.572 179.306L106.9 190.452C107.144 200 113.015 212.15 113.883 221.791C111.041 224.548 92.0994 234.732 86.6562 238.35L98.9605 267.912C96.5221 270.159 88.4533 277.963 85.5954 278.566C84.5375 280.363 85.0511 279.689 83.3548 281.445C80.7724 284.118 77.1695 286.174 74.9567 289.152L79.2584 297.493C81.3272 298.875 89.9336 312.921 91.2757 315.783C89.7685 319.233 80.1301 329.602 77.0965 333.085C75.3484 335.093 71.9221 340 69.7688 341.384C66.0844 343.752 38.349 351.831 34.3573 354.555C28.197 358.756 35.5007 372.356 37.5388 377.972C43.2565 393.73 49.2613 409.286 54.5192 425.256C57.2437 433.529 70.8853 467.114 71.1215 472.739L75.4789 482.159C75.6325 482.517 75.9839 483.847 76.2901 484.929C76.9381 487.213 77.7906 489.639 78.596 492.006C79.8085 495.566 79.9391 496.018 83.0063 497.711C80.6802 503.475 83.8636 501.027 84.2293 508.147C87.1324 512.881 92.8712 532.296 95.5784 539.18C98.6082 546.883 103.205 544.97 110.062 542.324C115.179 540.35 121.592 537.936 127.149 536.496C128.202 534.999 134.149 533.57 136.58 532.754C140.493 531.441 165.686 536.975 171.488 537.76C173.241 544.601 173.322 565.52 175.955 569.288C179.781 571.716 201.012 569.189 207.96 570.372L216.758 601.031L248.899 596.114L262.329 624.696C271.247 623.768 283.922 617.088 293.203 615.082C299.242 620.467 305.803 634.126 312.182 641.104L340.798 626.268C347.82 633.755 356.046 641.038 362.741 648.717C366.12 647.732 373.121 641.509 376.134 639.174C391.909 626.944 385.661 626.928 402.388 638.964C405.44 641.159 412.482 646.89 415.39 647.822L436.373 625.068C443.233 625.588 458.137 636.582 466.443 638.458C469.2 634.273 481.783 614.447 484.393 612.112L514.863 620.977C517.013 618.257 526.216 596.433 527.966 591.857L560.398 595.739C561.132 592.518 566.879 567.232 569.261 564.636L600.555 563.363L603.634 531.421L635.123 525.033L632.966 492.609L662.817 481.322L655.217 449.829C660.029 446.996 679.931 435.706 682.557 433.273C680.904 424.373 672.296 412.552 670.525 403.26C673.138 401.662 675.45 399.353 677.869 397.338C679.391 396.07 680.262 395.414 681.765 394.156L684.481 391.171C687.368 389.823 692.632 385.427 694.472 383.147C693.11 377.793 679.666 360.963 677.981 355.733C682.768 348.397 692.324 339.336 697.54 332.408C699.754 329.466 698.483 330.618 702.792 329.092L728.741 319.746C741.131 315.476 734.996 309.96 730.633 296.575C729.831 294.114 729.242 292.481 728.33 290.279C727.665 288.674 727.591 288.244 727.042 286.783L725.302 283.637C725.536 281.192 711.731 243.083 708.442 234.946L698.357 206.731C697.921 205.641 697.499 204.58 696.938 203.464C695.375 200.355 696.578 202.749 694.996 200.632C691.262 195.638 696.974 200.313 690.303 185.758L676.582 146.235C670.801 130.576 671.885 124.823 658.616 129.808C622.712 143.299 635.711 140.352 597.867 134.019L593.872 102.112L561.856 101.87L552.644 71.5354C551.406 70.9882 552.619 71.2723 550.901 71.112L537.191 73.2202C531.533 73.9517 525.695 75.408 520.581 75.7671C518.351 71.2791 516.054 66.3447 513.579 61.7069C511.161 57.1757 509.181 51.1757 506.246 47.3069C499.237 48.2141 481.318 56.2973 475.699 56.4442L456.901 31.1213L428.857 45.7075C423.091 41.161 411.513 26.7898 405.991 23.2935L379.978 42.3139L354.296 24.2391L332.365 46.5706L302.842 33.3629L285.37 59.4874C277.472 59.6496 262.497 51.1085 253.961 50.9712C251.774 57.0864 248.677 62.9856 246.323 69.0567L246.322 69.0528ZM103.44 524.754L45.2764 363.442L99.5519 343.746C109.562 339.923 127.29 334.564 136.162 330.296L207.849 304.843C216.816 301.522 225.651 298.247 234.899 295.056C243.829 291.975 253.418 288.88 261.983 285.308C279.609 277.958 297.922 272.712 316.179 265.872L475.466 208.34C477.558 206.468 475.437 208.214 476.482 205.837C481.575 207.504 483.11 205.814 488.379 203.901C514.38 194.461 543.443 183.517 569.065 174.996C580.62 171.154 654.236 143.236 662.028 141.802C676.384 183.24 694.888 229.834 708.286 270.428C710.136 276.035 712.606 283.115 714.889 288.372C716.218 291.564 721.551 305.674 721.748 308.732C718.886 310.952 702.73 316.394 697.903 317.938L649.677 335.55C640.021 338.034 588.178 357.313 576.931 361.469C561.045 367.339 544.799 373.267 528.297 378.842L526.61 385.055C525.767 383.571 526.67 382.268 527.091 379.734C519.966 381.179 511.319 385.158 504.328 387.518L461.823 402.857C457.733 404.249 454.488 405.157 450.789 406.752C429.059 416.125 380.635 431.845 355.153 441.237C313.727 456.507 267.855 471.718 227.28 487.217L184.619 502.518C184.614 505.127 184.143 507.424 183.49 509.347C181.977 507.157 182.932 508.744 182.209 504.865C182.181 504.719 182.113 504.564 182.094 504.252C182.074 503.945 182.056 503.839 181.947 503.567L151.433 514.147C150.817 514.951 109.087 530.356 105.265 530.417L103.437 524.753L103.44 524.754ZM132.055 318.73C131.954 294.656 141.609 262.122 149.187 242.306C173.332 179.161 224.513 126.745 290.536 100.036C342.405 79.0531 393.955 76.3767 451.759 90.5559C476.342 96.5866 497.511 107.551 517.524 118.837C529.706 125.707 564.966 152.656 569.574 161.482C566.88 163.351 480.286 194.058 467.98 198.4C460.439 201.06 459.632 198.16 453.644 195.276C412.452 175.438 367.066 174.053 323.312 192.38C288.682 206.886 258.481 236.173 243.101 271.211C237.395 284.208 241.953 279.036 220.214 287.427C210.475 291.186 200.733 294.527 190.838 298.006C182.881 300.805 135.739 318.419 132.054 318.73H132.055ZM120.529 322.5C118.27 307.429 118.259 315.484 122.633 302.642C126.168 292.261 124.187 290.465 123.934 280.498C123.836 276.661 130.427 268.736 131.913 262.629C135.82 246.574 130.176 249.069 136.48 242.093C140.647 237.483 143.357 232.463 145.494 225.251C146.361 222.325 146.066 217.393 147.458 214.608C148.073 213.376 152.308 210.19 153.81 208.505C164.519 196.489 162.141 187.35 166.67 183.773C169.415 181.605 171.235 180.804 173.762 178.318C187.831 164.472 180.526 160.99 189.883 156.076C197.848 151.893 204.939 145.123 209.042 136.836C212.503 129.847 213.224 134.754 224.521 127.289C230.219 123.524 233.224 119.929 237.449 114.334C239.935 111.042 241.575 111.967 246.288 110.654C259.178 107.062 261.449 102.885 269.314 96.0787C272.402 93.4071 274.52 94.6368 279.601 93.8141C293.809 91.5149 302.594 82.2067 305.777 81.8352C324.899 79.6013 316.906 84.4243 337.23 74.6899C340.685 73.0349 343.317 74.688 347.429 75.0394C354.324 75.6288 363.584 74.4384 369.154 72.1613C378.57 68.3136 373.659 73.3728 391.106 73.4544C395.29 73.4736 399.057 73.4525 403.088 72.3341C413.538 69.4349 414.556 78.3255 434.1 76.776C446.862 75.7651 440.941 76.2749 448.591 79.8231C449.333 80.1677 449.909 80.3059 450.807 80.7303C464.436 87.1594 470.602 83.0861 475.228 85.1856L482.267 90.6634C484.411 92.0515 487.553 94.0416 490.433 95.089C494.286 96.4896 496.956 97.0071 501.572 97.4362C511.33 98.3434 506.469 104.807 524.299 112.104C527.189 113.287 532.518 114.035 534.603 115.044C536.984 116.196 538.7 119.893 540.369 121.88C543.833 126.005 548.554 130.059 554.416 132.879C570.612 140.672 558.571 132.101 567.518 144.837C573.22 152.952 573.876 151.749 578.431 155.875C578.549 155.982 578.738 156.164 578.842 156.264L579.988 157.564C569.782 164.495 570.671 158.396 552.494 142.651C541.129 132.806 523.638 120.367 509.652 112.679C441.666 75.3082 365.778 70.464 293.746 97.1242C258.469 110.18 217.456 138.201 193.535 166.776C155.844 211.798 135.29 257.931 130.416 319.821C127.439 320.71 123.863 322.755 120.529 322.499V322.5ZM588.417 369.943C600.123 367.538 627.905 354.426 638.195 352.884C636.448 405.391 610.796 458.936 586.432 489.945C559.888 523.729 527.878 550.89 479.376 570.846C430.877 590.801 372.939 594.67 318.665 580.16C286.546 571.573 249.745 553.122 225.398 532.4C219.249 527.165 205.182 515.868 201.595 510.029C203.929 508.022 268.866 485.021 280.577 480.983C312.103 470.111 302.673 469.178 319.459 476.729C332.561 482.623 346.531 487.286 361.222 489.277C382.946 492.222 404.404 491.72 425.121 486.06C462.873 475.747 488.034 456.862 510.486 428.094C515.562 421.59 519.954 414.152 524.215 405.8C530.903 392.691 528.256 391.892 534.603 389.585C536.756 388.803 538.508 388.154 540.943 387.333C549.735 384.37 558.284 381.227 567.427 377.755C582.302 372.108 586.106 373.643 589.091 364.726L588.413 369.942L588.417 369.943ZM574.169 521.731L572.821 518.699C568.842 522.484 565.375 525.231 562.027 530.578C555.142 541.575 560.484 534.973 548.974 541C544.11 543.547 539.134 548.03 535.993 551.525C528.29 560.095 534.476 556.93 521.818 560.895C516.356 562.607 510.814 565.679 507.082 568.817C496.427 577.777 504.261 576.113 492.159 577.428C482.142 578.518 474.631 582.563 467.885 588.364C462.373 593.103 457.247 586.937 441.778 592.808C434.261 595.661 438.37 599.893 434.186 604.538C432.453 602.3 434.052 600.63 434.044 597.245C425.966 600.158 418.99 594.274 405.454 598.797C400.542 600.439 397.693 603.32 392.841 601.56C388.163 599.864 384.094 598.759 378.575 598.731C370.278 598.69 368.185 600.862 362.64 601.432C359.086 601.797 349.366 593.329 332.817 595.754C321.658 597.389 324.346 589.628 305.588 587.031C294.962 585.561 297.765 589.291 290.586 583.147C285.442 578.745 282.705 577.856 276.93 576.4C273.899 575.636 274.907 575.15 271.949 574.294C260.105 570.865 268.232 577.738 259.905 569.176C246.706 555.606 236.505 558.712 232.913 554.662C231.598 553.18 230.657 551.108 229.367 549.586C227.735 547.66 226.735 546.74 225.118 545.204C215.065 535.657 208.369 537.819 205.132 532.313C194.665 514.51 194.294 520.139 189.945 513.945L199.122 510.378C207.47 516.096 215.91 530.264 251.931 552.852C318.852 594.815 407.865 601.979 479.99 572.25C562.479 538.25 631.091 463.003 639.791 352.164C642.511 350.741 644.623 349.613 647.945 349.427C649.142 354.51 650.721 357.537 648.916 361.289C647.011 365.25 645.955 368.234 644.794 372.844C643.654 377.376 643.593 382.855 644.076 387.87C645.01 397.538 639.675 394.966 636.033 411.061C632.425 427.006 639.048 418.523 630.857 429.434C620.688 442.98 623.091 453.472 619.497 457.244C615.989 460.926 615.171 461.159 612.127 465.548C603.881 477.439 605.778 482.921 601.695 486.404C595.455 491.726 591.468 495.016 586.973 503.052C585.261 506.111 583.999 511.264 581.38 513.108C577.651 515.731 579.443 512.956 576.63 517.598C576.537 517.752 576.419 517.948 576.322 518.1C574.767 520.563 574.889 519.21 574.167 521.729L574.169 521.731ZM386.253 541.851C386.949 542.738 386.348 541.755 387.304 543.49L395.99 567.086L408.945 566.637L406.504 513.177L396.258 513.573C395.817 518.53 397.528 533.052 397.112 538.176C397.094 538.384 397.059 538.626 397.037 538.803L396.588 540.323C394.778 537.085 393.065 530.784 391.81 527.298L387.039 513.899L374.324 514.67L376.714 567.852L387.159 567.584L386.253 541.852V541.851ZM247.639 148.95C248.561 152.616 260.264 166.312 263.187 170.717C259.136 168.973 252.217 163.193 247.932 160.548C245.164 158.84 243.648 159.196 240.722 158.182C239.373 154.996 243.25 159.805 240.574 155.469C237.395 155.738 231.139 161.293 229.999 163.048C234.315 169.566 240.347 176.803 245.455 183.363C248.721 187.558 258.582 201.531 261.87 203.831C264.485 202.219 268.043 199.941 269.462 197.511C265.896 191.818 257.583 183.313 255.322 177.874L276.707 192.037C279.767 190.874 285.262 186.711 286.81 184.196L255.605 143.407C253.058 144.089 249.288 147.562 247.64 148.95H247.639ZM456.092 157.566C456.308 154.69 465.466 131.744 467.082 129.586C475.763 132.229 474.189 140.285 470.881 148.048C468.225 154.28 464.375 161.379 456.092 157.566V157.566ZM440.652 162.905C445.406 166.261 458.794 171.54 465.861 169.642C473.458 167.602 478.841 159.811 481.711 152.626C485.232 143.807 487.706 134.279 481.819 126.386C479.077 122.709 466.33 115.538 460.034 115.289L440.653 162.905H440.652ZM483.273 498.271L478.956 488.62C474.817 489.046 452.557 499.933 449.773 502.197C450.27 505.145 470.662 547.499 472.565 549.912L502.512 536.124C501.643 531.486 499.737 530.285 498.409 526.382C492.024 527.359 483.174 534.221 478.047 534.734C476.215 531.766 474.727 529.004 474.101 525.622C479.578 523.451 485.129 520.068 490.456 517.681L485.88 508.143C480.525 509.062 474.085 514.21 468.641 515.517C467.435 512.971 465.372 509.708 465.064 506.836L483.272 498.271H483.273ZM315.171 114.487C315.164 117.868 325.85 161.04 327.221 164.18C328.181 164.543 326.16 164.509 329.147 164.526C333.029 164.549 358.58 157.525 359.882 156.781C359.731 154.101 359.012 149.563 357.426 147.076C349.748 147.371 343.563 151.069 336.278 151.299L333.715 141.979L351.769 137.417L349.737 126.993L331.027 131.218C330.088 127.681 329.164 125.858 329.247 122.318L348.948 117.209L346.642 106.875C343.777 106.948 317.065 113.453 315.17 114.486L315.171 114.487ZM403.639 155.961L432.116 161.235C432.346 161.269 434.038 161.431 434.158 161.423L435.46 161.189C435.646 161.146 435.922 161.005 436.069 160.961C436.218 160.918 436.489 160.823 436.668 160.698C436.553 158.591 437.18 159.181 434.864 158.45L433.582 158.348C435.727 155.071 437.233 155.471 438.175 152.082C436.935 151.052 438.283 151.74 436.098 150.897L416.467 147.089L418.13 137.601C424.44 137.505 430.594 140.571 437.147 140.2C437.607 136.749 438.982 133.14 438.432 129.823L420.461 126.611L421.63 117.663L442.383 120.737L444.328 110.067L412.026 104.519C410.768 110.88 402.706 153.648 403.64 155.96L403.639 155.961ZM513.876 461.468C516.092 464.198 551.548 494.815 554.023 495.766L575.382 470.868C574.255 468.998 570.122 465.297 567.338 464.043C562.236 468.466 558.236 475.01 553.239 479.627C550 478.412 547.234 475.458 545.606 473.217C547.114 471.458 549.823 468.637 550.421 466.611C551.58 462.685 550.421 461 553.238 457.761L554.805 461.632L557.081 459.275L549.488 452.109C544.739 455.515 541.114 462.616 536.791 465.527C533.938 464.346 531.765 462.156 529.858 459.9C532.153 454.367 541 449.319 542.416 443.209L535.405 437.155C531.873 438.695 515.082 459.041 513.875 461.466L513.876 461.468ZM344.594 540.792C345.458 535.927 349.59 529.069 350.208 526.902L351.087 541.8L344.595 540.792H344.594ZM334.712 562.666C337.426 559.801 337.59 555.324 340.194 551.675C344.332 551.534 348.266 552.367 350.37 553.096C354.3 554.459 350.785 563.176 353.605 565.668C356.171 567.119 360.688 567.284 364.378 567.544L358.575 512.677L346.461 510.934C344.232 513.946 325.396 556.161 323.978 560.943C326.722 562.251 331.003 562.638 334.712 562.667V562.666ZM454.935 538.646C437.377 537.282 447.328 540.965 442.232 547.861C437.789 553.874 432.35 545.449 430.578 541.108C426.96 532.242 424.975 514.585 434.378 518.433C436.652 519.363 438.08 522.483 439.666 524.376C442.842 523.642 446.275 521.322 448.845 519.43C446.823 510.056 434.561 502.513 423.381 509.46C407.582 519.277 417.69 561.254 438.098 561.089C450.05 560.992 456.317 550.917 454.933 538.647L454.935 538.646ZM316.739 151.152L305.953 153.074C306.002 155.623 306.596 157.275 306.296 159.759C305.872 163.266 304.945 162.428 304.334 165.519C290.303 163.679 285.063 143.095 287.274 138.385C290.937 132.1 295.617 137.382 298.682 140.384C301.646 139.185 305.167 135.721 306.988 133.284C296.069 115.879 262.788 124.289 279.801 159.217C293.559 187.466 322.135 178.64 316.739 151.151V151.152ZM485.803 483.399C486.917 487.072 498.403 500.815 501.413 504.671C504.418 508.522 515.102 523.627 517.992 525.629C521.268 523.888 539.115 510.433 541.542 507.681C540.85 504.666 537.265 500.738 535.224 499.184C531.527 500.604 524.468 507.301 520.342 509.723C515.186 505.585 500.914 482.924 494.495 477.129C491.506 478.014 488.038 481.3 485.803 483.399ZM366.935 156.496L397.619 155.531L397.858 145.315C393.297 143.979 383.613 145.212 378.36 145.168L376.879 104.267L365.277 104.13L366.935 156.497V156.496ZM492.592 166.456L504.545 168.102C506.4 171.02 508.558 176.437 511.073 178.693C519.383 161.465 512.885 171.031 528.562 165.012C525.841 162.887 522.178 159.175 519.65 156.908L520.751 144.654C511.511 146.695 514.023 153.875 498.737 144.673C498.457 148.212 500.788 155.184 500.137 157.14C499.457 159.18 494.446 162.764 492.593 166.456H492.592ZM287.373 540.938C287.442 547.827 295.316 554.139 303.383 554.099C310.594 554.062 318.487 547.25 319.945 542.144C317.736 539.989 314.1 537.435 311.214 536.553C308.946 538.721 302.597 547.326 299.074 540.168C296.453 534.84 299.468 527.286 301.347 523.043C302.919 519.24 305.211 513.178 309.319 512.011C316.176 510.064 315.511 517.325 316.041 522.543L326.965 522.916C327.621 513.006 326.004 506.362 319.995 502.788C294.689 487.739 282.406 535.528 287.374 540.938H287.373ZM265.946 503.565L260.31 492.851C257.314 496.05 257.58 500.001 254.855 503.031C252.44 505.717 247.132 505.334 242.721 505.943C244.504 510.715 247.881 510.19 250.148 513.934C252.491 517.802 250.088 522.926 250.121 527.253C253.223 526.362 258.636 522.228 261.133 522.214C263.262 522.202 268.737 525.735 272.203 526.585L271.841 524.124C271.219 519.467 269.141 515.93 271.562 512.713C274.009 509.461 276.189 509.412 277.926 505.036L265.946 503.565V503.565ZM344.593 540.792L351.085 541.8L350.206 526.902C349.588 529.069 345.457 535.927 344.592 540.792H344.593Z" fill="#ED3237"/>
</svg>